<?xml version="1.0" encoding="utf-8"?>
<!-- Generator: Adobe Illustrator 25.4.1, SVG Export Plug-In . SVG Version: 6.00 Build 0)  -->
<svg version="1.1" id="Layer_1" xmlns="http://www.w3.org/2000/svg" xmlns:xlink="http://www.w3.org/1999/xlink" x="0px" y="0px"
	 viewBox="0 0 1080 1080" style="enable-background:new 0 0 1080 1080;" xml:space="preserve">
<style type="text/css">
	.st0{fill:#78C272;}
	.st1{fill:#FFFFFF;}
	.st2{font-family:'Roboto-Bold';}
	.st3{font-size:115.8705px;}
</style>
<g>
	<g>
		<path class="st0" d="M153.73,499.55c-1.51-23.91-25.32-38.12-45.76-31.91C110.33,493.25,134.96,505.71,153.73,499.55z"/>
		<path class="st0" d="M320.94,485.21c20.11,3.62,35.14-12.61,32.7-30.28C332,451.65,318.33,468.9,320.94,485.21z"/>
		<path class="st0" d="M160.01,507.68c1.09,17.82,17.34,26.03,30.04,21.37C189.5,512.41,173.82,502.96,160.01,507.68z"/>
		<path class="st0" d="M340.44,595.92c-3.23,15.29,8.57,26.01,20.37,25.03C364.22,606.77,353.19,595.15,340.44,595.92z"/>
		<path class="st0" d="M97.56,517.1c13.83,14.8,35.17,10.67,43.88-2.22C128.96,500.74,107.28,503.38,97.56,517.1z"/>
		<path class="st0" d="M320.45,603.35c12.8-11.96,9.23-30.41-1.92-37.94C306.3,576.2,308.58,594.94,320.45,603.35z"/>
		<path class="st0" d="M314.58,533.5c20.1,2.5,33.84-14.34,32.28-29.82C328.21,500.81,313.25,516.73,314.58,533.5z"/>
		<path class="st0" d="M173.45,564.2c-7.94-16.64-26.31-18.29-36.67-6.46C145.72,575.3,164.07,575.38,173.45,564.2z"/>
		<path class="st0" d="M381.37,547.37c8.94,17.56,27.29,17.65,36.67,6.46C410.1,537.19,391.73,535.54,381.37,547.37z"/>
		<path class="st0" d="M362.28,575.41c3.66,19.36,21.25,24.59,33.39,16.48C392.71,573.68,375.53,566.96,362.28,575.41z"/>
		<path class="st0" d="M367.18,564.85c-7.94-16.64-26.31-18.29-36.67-6.46C339.45,575.94,357.8,576.03,367.18,564.85z"/>
		<path class="st0" d="M138.13,571.12c-19.97-4.36-31.41,9.27-25.84,25.14C133.67,600.4,143.63,585.8,138.13,571.12z"/>
		<path class="st0" d="M362.48,519.92c14.79,17.19,35.97,12.47,43.94-2.44C393.04,501.05,371.42,504.05,362.48,519.92z"/>
		<path class="st0" d="M125.63,545.28c-14.64-11.51-33.24-4.82-38.43,10.47C103.2,567.64,121.13,559.56,125.63,545.28z"/>
		<path class="st0" d="M391.32,475.79c-15.18-7.39-30.37,2.1-32.04,16.64C375.74,499.89,390.07,489.3,391.32,475.79z"/>
		<path class="st1" d="M302.05,711.15c-31.42-21.06-24.62-56.05-21.38-87.47c5.51-82.94,85.2-86.17,85.2-86.17
			c-69.33-6.15-103.34,46.33-113.06,59.29c-56.37-73.54-115.33-60.26-115.33-60.26s24.62,1.95,60.58,28.51
			c42.12,34.99,32.23,112.9,32.23,112.9s-1.3,0.49-5.83-3.89c-4.53-4.37-5.18,0.97-5.02,11.18c0.16,9.88-0.33,6.64,1.78,7.61
			c2.11,0.65,2.75,6.32,0.65,6.32c-1.46,0-7.79-4.03-11.56-6.51c-1.01-0.66-2.31,5.79-2.02,6.97c1.34,5.37,3.94,10.28,4.99,15.1
			c-1.62,4.21-3.4-1.3-3.4-1.3l-2.22-11.23c-0.31-1.55-1.68-2.65-3.26-2.61c-2.29,0.06-5.83,0.13-9.87,0.12
			c-3.1-0.01-5.06,3.36-3.47,6.02c1.83,3.08,5.1,6.06,7,9.97c-40.33,7.77-63.17,22.03-79.05,33.04
			c103.35-44.06,219.97-12.64,268.24,1.62C377.85,735.45,319.87,718.6,302.05,711.15z"/>
		<path class="st1" d="M157.6,374.5c-21.16-0.62-33.54-1.36-70.67-16.47c-2.59-1.3,5.75,14.58,12.43,17.01
			c6.68,2.43,56.61,17.25,71.43,18.71c5.6,0.51,8.19,0.68,9.25,0.7c1.81,1.25,7.76,5.59,4.96,6.83c-8.02,1.7-27.7,6.44-74.47-7.9
			c-13.12-4.01,4.98,10.57,6.32,10.93c1.33,0.36,33.26,10.44,60.11,13.24c0.02,0,0.04,0.01,0.06,0.01
			c10.55,2.07,17.46,5.58,11.27,6.19c-6.19,0.61-37.38,3.4-55.97-4.84c-0.02-0.01-0.05-0.02-0.07-0.03
			c-8.36-2.66-13.2-0.84-11.87,1.23c2.31,2.19,9.6,7.53,10.45,9.48c0.85,1.94,12.88,4.49,20.29,4.49h47.32
			c0.13,0,0.26,0.03,0.36,0.1c0.63,0.38,2.49,1.8-1.03,3.66c-4.13,2.19-10.2,4.74-37.49,2.8c-0.03,0-0.07,0-0.1-0.01
			c-3.86-0.86-22.43-3.58-21.34,4.79c0,0.05,0.01,0.1,0.03,0.15c1.36,4.73,11.48,7.76,15.59,8.3c0.31,0.04,0.54,0.27,0.6,0.57
			c1.36,7.34,5.03,17.88,13.48,21.06c0.22,0.08,0.39,0.27,0.45,0.5c2.21,9.59,3.38,12.91,20.49,25.7
			c10.63,8.06,22.63,14.55,17.38,38.4c-0.05,0.24,0.02,0.5,0.2,0.67c3.71,3.32,14.57,6.95,18.15,9.66c0.02,0.01,0.03,0.03,0.05,0.05
			c4.26,3.89,11.88,9.46,14.31,12.25c2.42,2.78,5.44,3.28,4.03-2.48c-0.01-0.04-0.03-0.09-0.04-0.13
			c-3.17-6.95-9.94-22.21-11.39-33.59c0,0-0.12-2.07,3.89,0.97c4.01,3.04,9.72,8.14,13.48,20.53c3.89,11.91,3.61,10.69,3.61,10.69
			s3.24,11.09,5.43,1.21c1.67-9.45-7.72-36.56-8.09-37.63c-0.01-0.02-0.01-0.04-0.02-0.07c-0.2-0.89-4.23-18.69,0.98-12.76
			c5.35,6.07,10.61,14.66,11.58,23.65c0.66,6.05,1.16,9.31,1.42,10.8c0.09,0.52,0.7,0.76,1.13,0.44c1.89-1.42,5.84-5.75,4.09-16.26
			c-2.27-13.61-11.1-28.02-14.42-30.94s-2.51-9.48,0.89-8.34c3.4,1.14,14.42,6.84,18.06,17.78c2.97,8.93,4.82,14.37,5.39,16.07
			c0.12,0.35,0.49,0.55,0.85,0.46c1.61-0.41,5.55-2.25,4.57-10.33c-1.21-10.06-12.47-26.91-20.49-32.04
			c-0.03-0.02-0.06-0.03-0.09-0.05c-2.77-1.32-6.21-2.3-2.57-7.53c0.04-0.06,0.1-0.12,0.16-0.17c2.75-2.1,12.34,3.9,14.93,5.59
			c0.37,0.24,0.86,0.1,1.03-0.31c0.51-1.18,1.23-3.74,0.1-7.28c-1.24-3.91-8.33-5.73-11.31-6.32c-0.53-0.11-0.75-0.75-0.4-1.15
			c1.2-1.36,2.87-4,0.48-6.31c-0.04-0.04-0.09-0.08-0.15-0.11c-1-0.61-2-0.73-2.9-0.62c-0.68,0.08-1.1-0.73-0.6-1.21
			c1.23-1.2,2.59-2.46,3.34-2.98c1.58-1.09,2.23-2.83,0.04-3.77c-2.19-0.93-0.32-2.23,1.01-3c1.34-0.77,10.49-4.25,8.38-11.7
			c-2.03-7.28-9.37-0.79-9.86-0.35c-0.02,0.02-0.03,0.03-0.05,0.05c-0.56,0.62-1.54-0.07-1.15-0.81c0.2-0.38,0.5-0.78,0.93-1.16
			c1.86-1.62,17.09-22.76,24.74-23c7.65-0.24,12.76,0.12,12.76,3.4c0,3.28,1.33,5.1,4.37,4.5c3.04-0.61,8.99-4.13,18.22,1.46
			c6.98,4.23,7.29,8.87,7.03,10.88c-0.07,0.5-0.62,0.76-1.05,0.51c-2.68-1.53-11.7-5.71-23.92-1.08c-0.02,0.01-0.05,0.02-0.08,0.03
			c-7.45,3.59-11.03,9.66-11.97,11.48c-0.15,0.29-0.48,0.44-0.8,0.36c-1.97-0.5-9.16-1.29-18.52,10.06
			c-0.34,0.41-0.13,1.04,0.4,1.15c3.87,0.79,12.53,2.65,15.17,2.72c0.35,0.01,0.65,0.28,0.68,0.64c0.25,2.65-1.04,6.43,0.47,10.42
			c0.02,0.06,0.04,0.12,0.04,0.18c0.23,2.29-2.11,2.72-2.84,2.8c-0.19,0.02-0.37,0.12-0.49,0.27c-0.35,0.48-0.74,1.75,0.88,4.77
			c2.16,4.01,4.46,7.43,4.68,7.75c0.01,0.02,0.02,0.03,0.03,0.06c0.19,0.35,1.89,3.63-0.18,5.31c-2.19,1.78-3.97,2.67-4.13,4.37
			c-0.16,1.68,0.23,2.8,2.96,4.15c0.08,0.04,0.15,0.08,0.21,0.15c1.51,1.64,1.74,6.72,1.77,8.51c0.01,0.35,0.26,0.64,0.61,0.69
			c1.13,0.17,3.35,0.87,1.99,3.83c-1.08,2.36-2.64,1.52-3.7,0.5c-0.45-0.43-1.18-0.15-1.21,0.47c-0.09,2.31-0.34,6.03-1,6.64
			c-0.97,0.89-2.59,0-3.32,5.35c-0.81,3.32-2.59,0.97-2.91,7.69c-0.36,5.96-1.99,6-3.37,5.76c-0.31-0.05-0.63,0.1-0.76,0.39
			c-1.3,2.73-2.45,8.67,0.98,9.97c1.5,0.75,2.01,0.95,2.17,0.97c-0.11,0.53-0.52,3.64,4.15,2.67c3.73-0.4,7.61-2.27,8.67-4.78
			c1.04-2.49,2.01-7.45,2.18-11.65c0-0.07,0.01-0.13,0.03-0.19c1.39-4.37,9.85-10.29,10.01-12.86c0-2.79-3.27-24.3-4.97-28.97
			c-0.12-0.32,0.01-0.67,0.31-0.85c2.93-1.77,3.37-0.33,3.53-2.1c0.16-1.86,2.35-3.89-0.24-4.78c-3.24-0.89-3.32,1.46-4.29-4.86
			c-0.97-6.32-1.54-22.11-0.45-25.63c1.09-3.52,8.35-12.45,11.18-16.4c3.01-4.21,16.21-1.96,20.91,3.81
			c0.26,0.32,0.76,0.35,1.04,0.05c3.08-3.26,5.95-15.98,1.04-20.95c-0.02-0.02-0.04-0.04-0.06-0.07
			c-8.38-11.7-16.28-10.69-26.97-11.47c-0.26-0.02-0.49-0.17-0.59-0.41c-2.18-5.12-17.43-8.1-36.63-1.95
			c-0.03,0.01-0.06,0.02-0.1,0.04c-11.51,5.28-29.72,26.19-34.33,33.37c-0.31,0.49-1.05,0.41-1.26-0.13
			c-9.51-24.31-18.03-41.47-18.67-49.42c-0.65-8.1-4.86-16.2-36.28-22.84c-28.29-6.12-90.85-30.76-103.04-35.61
			c-0.65-0.26-1.24,0.47-0.85,1.05c3.3,4.98,12.39,18.25,16.59,19.82c4.87,1.83,51.45,15.37,61.4,22.64
			C158.61,373.63,158.29,374.52,157.6,374.5z M218.63,493.45l-0.81,9.39c0,0-4.37,0.97-14.09,1.78c0-2.43-6.8-10.2-6.8-10.2
			L218.63,493.45z M211.99,479.35c-3.24,1.78-15.39,8.75-27.54,6.48c-12.15-2.27-9.23-3.89-8.58-6.96c0,0,26.73-6.32,31.42-5.51
			C211.99,474.17,215.22,477.57,211.99,479.35z M207.49,459.84c-8.14,2.06-16.76,6.68-24.9,5.95c-8.14-0.73-11.78-6.32-23.93-8.14
			c0,0-2.43-0.61-1.46-4.13c0,0,42.28-3.52,49.44-4.49C212.84,449.14,215.63,457.77,207.49,459.84z"/>
		<path class="st1" d="M294.95,428.18c0.96,0.15,3.32,0.23,5.16-2.1c1.54-1.61,0.67-3.88,0.32-4.63c-0.06-0.12-0.21-0.15-0.3-0.05
			c-0.44,0.45-1.65,1.43-2.98,0.42c-1.67-1.26-9.45-11.99-14.64-5.51c-0.09,0.11-0.03,0.27,0.1,0.31c1.57,0.47,3.7-1.49,4.63,6.89
			l-1.13-2.38c0,0,0.33,3.16,1.66,3.72c1.34,0.55,2.12,0.98,6.54,0.1c0.01,0,0.02,0,0.02,0c1.1-0.09,1.52-0.12,2.32,0.31l0.78,0.43
			c0.11,0.06,0.12,0.22,0.02,0.29l-2.59,1.86C294.73,427.94,294.78,428.16,294.95,428.18z M293.76,422.7
			c-0.59,0.3-2.5,1.1-4.09-0.04c-1.91-1.37-1.64-3.2-0.98-4.02c0.49-0.6,1.07-0.5,1.34-0.4c0.09,0.03,0.15,0.12,0.13,0.21
			c-0.09,0.57-0.39,2.66-0.09,3c0.35,0.39,0.99,0.6,2.22,0.38c0.45-0.05,0.56-0.03,0.56-0.03l0.11-0.71l0.87,1.33
			C293.9,422.52,293.86,422.65,293.76,422.7z"/>
	</g>
	<text transform="matrix(1 0 0 1 467.832 573.8604)"><tspan x="0" y="0" class="st1 st2 st3">Espor</tspan><tspan x="297.77" y="0" class="st0 st2 st3">T</tspan><tspan x="369.45" y="0" class="st1 st2 st3">ree</tspan></text>
</g>
</svg>
